<?xml version="1.0" encoding="utf-8"?>
<!-- Generator: Adobe Illustrator 19.0.1, SVG Export Plug-In . SVG Version: 6.00 Build 0)  -->
<svg version="1.1" id="Layer_1" xmlns="http://www.w3.org/2000/svg" xmlns:xlink="http://www.w3.org/1999/xlink" x="0px" y="0px"
	 viewBox="-371 283 48 48" style="enable-background:new -371 283 48 48;" xml:space="preserve">
<style type="text/css">
	.st0{fill:#ED1C24;}
</style>
<g>
	<path class="st0" d="M-345,283c-8.8,0-16,7.2-16,16c0,8.5,14.5,30.6,15.2,31.6c0.2,0.3,0.5,0.4,0.8,0.4s0.6-0.2,0.8-0.4
		c0.6-0.9,15.2-23.1,15.2-31.6C-329,290.2-336.2,283-345,283z M-345,328.2c-3.1-4.9-14-22.4-14-29.2c0-7.7,6.3-14,14-14
		s14,6.3,14,14C-331,305.8-341.9,323.3-345,328.2z"/>
	<path class="st0" d="M-345,292c-3.9,0-7,3.1-7,7s3.1,7,7,7s7-3.1,7-7S-341.1,292-345,292z M-345,304c-2.8,0-5-2.2-5-5s2.2-5,5-5
		s5,2.2,5,5S-342.2,304-345,304z"/>
</g>
</svg>
